<svg width="21" height="23" viewBox="0 0 21 23" fill="none" xmlns="http://www.w3.org/2000/svg">
<path d="M20.3 5.75V6.46875H18.9V20.125C18.9 20.8875 18.605 21.6188 18.0799 22.1579C17.5548 22.6971 16.8426 23 16.1 23H4.9C4.15739 23 3.4452 22.6971 2.9201 22.1579C2.395 21.6188 2.1 20.8875 2.1 20.125V6.46875H0.7V5.75H0V5.03125C0 4.26875 0.294999 3.53748 0.820101 2.99832C1.3452 2.45915 2.05739 2.15625 2.8 2.15625H5.6994C5.85413 1.5409 6.20308 0.995528 6.6917 0.605402C7.18031 0.215276 7.78105 0.00238176 8.4 0L12.6 0C13.219 0.00238176 13.8197 0.215276 14.3083 0.605402C14.7969 0.995528 15.1459 1.5409 15.3006 2.15625H18.2C18.9426 2.15625 19.6548 2.45915 20.1799 2.99832C20.705 3.53748 21 4.26875 21 5.03125V5.75H20.3ZM4.9 21.5625H16.1C16.4713 21.5625 16.8274 21.411 17.0899 21.1415C17.3525 20.8719 17.5 20.5062 17.5 20.125V6.46875H3.5L3.4027 20.125C3.42513 20.5161 3.59303 20.8833 3.8717 21.1508C4.15037 21.4184 4.5185 21.5658 4.9 21.5625ZM12.6 1.4375H8.4C8.15536 1.43833 7.91522 1.50517 7.70366 1.63132C7.49211 1.75746 7.31655 1.93849 7.1946 2.15625H13.8047C13.6828 1.93859 13.5074 1.75764 13.2959 1.63149C13.0845 1.50535 12.8445 1.43846 12.6 1.4375ZM18.2 3.59375H2.8C2.4287 3.59375 2.0726 3.7452 1.81005 4.01478C1.5475 4.28437 1.4 4.65 1.4 5.03125H19.6C19.6 4.65 19.4525 4.28437 19.1899 4.01478C18.9274 3.7452 18.5713 3.59375 18.2 3.59375ZM6.3 9.34375C6.48565 9.34375 6.6637 9.41948 6.79497 9.55427C6.92625 9.68906 7 9.87188 7 10.0625V17.9688C7 18.1594 6.92625 18.3422 6.79497 18.477C6.6637 18.6118 6.48565 18.6875 6.3 18.6875C6.11435 18.6875 5.9363 18.6118 5.80503 18.477C5.67375 18.3422 5.6 18.1594 5.6 17.9688V10.0625C5.6 9.87188 5.67375 9.68906 5.80503 9.55427C5.9363 9.41948 6.11435 9.34375 6.3 9.34375ZM10.5 9.34375C10.6857 9.34375 10.8637 9.41948 10.995 9.55427C11.1263 9.68906 11.2 9.87188 11.2 10.0625V17.9688C11.2 18.1594 11.1263 18.3422 10.995 18.477C10.8637 18.6118 10.6857 18.6875 10.5 18.6875C10.3143 18.6875 10.1363 18.6118 10.005 18.477C9.87375 18.3422 9.8 18.1594 9.8 17.9688V10.0625C9.8 9.87188 9.87375 9.68906 10.005 9.55427C10.1363 9.41948 10.3143 9.34375 10.5 9.34375ZM14.7 9.34375C14.8857 9.34375 15.0637 9.41948 15.195 9.55427C15.3263 9.68906 15.4 9.87188 15.4 10.0625V17.9688C15.4 18.1594 15.3263 18.3422 15.195 18.477C15.0637 18.6118 14.8857 18.6875 14.7 18.6875C14.5143 18.6875 14.3363 18.6118 14.205 18.477C14.0737 18.3422 14 18.1594 14 17.9688V10.0625C14 9.87188 14.0737 9.68906 14.205 9.55427C14.3363 9.41948 14.5143 9.34375 14.7 9.34375Z" fill="#7E7E7E"/>
</svg>
