<svg width="21" height="21" viewBox="0 0 21 21" fill="none" xmlns="http://www.w3.org/2000/svg">
<mask id="path-1-inside-1_126_1300" fill="white">
<path d="M20.0593 0.940917C19.4692 0.350817 18.6848 0.0263672 17.8501 0.0263672C17.0153 0.0263672 16.231 0.350817 15.6409 0.940917L2.25335 14.3284C2.19909 14.3827 2.1575 14.4483 2.13155 14.5206L0.0315527 20.2956C-0.00240629 20.3894 -0.00889561 20.4911 0.0128457 20.5885C0.0345869 20.6859 0.0836575 20.7751 0.154303 20.8457C0.224949 20.9162 0.314241 20.9651 0.411709 20.9867C0.509176 21.0083 0.610779 21.0017 0.704603 20.9676L6.4796 18.8676C6.55164 18.8412 6.61717 18.7997 6.67175 18.7458L20.0593 5.35827C20.6494 4.76817 20.9738 3.98382 20.9738 3.14907C20.9738 2.31432 20.6494 1.52997 20.0593 0.939867V0.940917ZM6.0113 17.9215L1.40285 19.5973L3.07865 14.9889L14.7001 3.36747L17.6327 6.30012L6.0113 17.9215ZM19.3159 4.61592L18.3751 5.55672L15.4424 2.62407L16.3832 1.68327C16.7749 1.29162 17.2957 1.07637 17.849 1.07637C18.4024 1.07637 18.9232 1.29162 19.3148 1.68327C19.7065 2.07492 19.9217 2.59572 19.9217 3.14907C19.9217 3.70242 19.7065 4.22322 19.3148 4.61487L19.3159 4.61592Z"/>
</mask>
<path d="M20.0593 0.940917C19.4692 0.350817 18.6848 0.0263672 17.8501 0.0263672C17.0153 0.0263672 16.231 0.350817 15.6409 0.940917L2.25335 14.3284C2.19909 14.3827 2.1575 14.4483 2.13155 14.5206L0.0315527 20.2956C-0.00240629 20.3894 -0.00889561 20.4911 0.0128457 20.5885C0.0345869 20.6859 0.0836575 20.7751 0.154303 20.8457C0.224949 20.9162 0.314241 20.9651 0.411709 20.9867C0.509176 21.0083 0.610779 21.0017 0.704603 20.9676L6.4796 18.8676C6.55164 18.8412 6.61717 18.7997 6.67175 18.7458L20.0593 5.35827C20.6494 4.76817 20.9738 3.98382 20.9738 3.14907C20.9738 2.31432 20.6494 1.52997 20.0593 0.939867V0.940917ZM6.0113 17.9215L1.40285 19.5973L3.07865 14.9889L14.7001 3.36747L17.6327 6.30012L6.0113 17.9215ZM19.3159 4.61592L18.3751 5.55672L15.4424 2.62407L16.3832 1.68327C16.7749 1.29162 17.2957 1.07637 17.849 1.07637C18.4024 1.07637 18.9232 1.29162 19.3148 1.68327C19.7065 2.07492 19.9217 2.59572 19.9217 3.14907C19.9217 3.70242 19.7065 4.22322 19.3148 4.61487L19.3159 4.61592Z" fill="#7E7E7E"/>
<path d="M20.0593 0.940917L16.5237 4.47645L25.0593 13.012V0.940917H20.0593ZM15.6409 0.940917L19.1764 4.47645L15.6409 0.940917ZM2.25335 14.3284L-1.28218 10.7929L-1.28306 10.7938L2.25335 14.3284ZM2.13155 14.5206L6.83052 16.2293L6.83394 16.2199L6.83732 16.2105L2.13155 14.5206ZM0.0315527 20.2956L-4.66742 18.5868L-4.67027 18.5947L0.0315527 20.2956ZM0.704603 20.9676L2.41278 25.6667L2.41332 25.6665L0.704603 20.9676ZM6.4796 18.8676L8.18832 23.5665L8.19836 23.5629L6.4796 18.8676ZM6.67175 18.7458L10.1846 22.3038L10.196 22.2926L10.2073 22.2813L6.67175 18.7458ZM20.0593 5.35827L23.5948 8.8938L20.0593 5.35827ZM20.0593 0.939867L23.5948 -2.59567L15.0593 -11.1312V0.939867H20.0593ZM6.0113 17.9215L7.72002 22.6205L8.76248 22.2414L9.54684 21.4571L6.0113 17.9215ZM1.40285 19.5973L-3.29611 17.8886L-6.95765 27.9578L3.11157 24.2963L1.40285 19.5973ZM3.07865 14.9889L-0.456881 11.4533L-1.24124 12.2377L-1.62031 13.2802L3.07865 14.9889ZM14.7001 3.36747L18.2356 -0.168067L14.7001 -3.7036L11.1645 -0.168067L14.7001 3.36747ZM17.6327 6.30012L21.1682 9.83565L24.7038 6.30012L21.1682 2.76458L17.6327 6.30012ZM19.3159 4.61592L22.8514 8.15145L26.3874 4.61539L22.8509 1.07986L19.3159 4.61592ZM18.3751 5.55672L14.8395 9.09225L18.3751 12.6278L21.9106 9.09225L18.3751 5.55672ZM15.4424 2.62407L11.9069 -0.911466L8.37134 2.62407L11.9069 6.1596L15.4424 2.62407ZM16.3832 1.68327L12.8477 -1.85227L12.8477 -1.85227L16.3832 1.68327ZM19.3148 4.61487L15.7793 1.07933L12.2432 4.61539L15.7798 8.15093L19.3148 4.61487ZM23.5948 -2.59462C22.0656 -4.12381 20.0089 -4.97363 17.8501 -4.97363V5.02637C17.3607 5.02637 16.8727 4.82544 16.5237 4.47645L23.5948 -2.59462ZM17.8501 -4.97363C15.6912 -4.97363 13.6345 -4.12381 12.1053 -2.59462L19.1764 4.47645C18.8274 4.82544 18.3394 5.02637 17.8501 5.02637V-4.97363ZM12.1053 -2.59462L-1.28218 10.7929L5.78889 17.864L19.1764 4.47645L12.1053 -2.59462ZM-1.28306 10.7938C-1.8583 11.3693 -2.2992 12.0649 -2.57421 12.8307L6.83732 16.2105C6.6142 16.8318 6.25648 17.3961 5.78977 17.8631L-1.28306 10.7938ZM-2.56741 12.8119L-4.66741 18.5869L4.73052 22.0043L6.83052 16.2293L-2.56741 12.8119ZM-4.67027 18.5947C-5.02765 19.5827 -5.09594 20.652 -4.86714 21.6774L4.89283 19.4996C5.07815 20.3301 5.02284 21.1962 4.73338 21.9964L-4.67027 18.5947ZM-4.86714 21.6774C-4.63834 22.7028 -4.12192 23.6417 -3.37847 24.384L3.68708 17.3074C4.28923 17.9086 4.70751 18.6691 4.89283 19.4996L-4.86714 21.6774ZM-3.37847 24.384C-2.63502 25.1263 -1.69533 25.6412 -0.669584 25.8684L1.493 16.1051C2.32382 16.2891 3.08492 16.7062 3.68708 17.3074L-3.37847 24.384ZM-0.669584 25.8684C0.356162 26.0956 1.42541 26.0256 2.41278 25.6667L-1.00357 16.2684C-0.203852 15.9777 0.66219 15.921 1.493 16.1051L-0.669584 25.8684ZM2.41332 25.6665L8.18832 23.5665L4.77089 14.1686L-1.00411 16.2686L2.41332 25.6665ZM8.19836 23.5629C8.94299 23.2903 9.62037 22.8609 10.1846 22.3038L3.15888 15.1877C3.61397 14.7384 4.16028 14.3921 4.76085 14.1723L8.19836 23.5629ZM10.2073 22.2813L23.5948 8.8938L16.5237 1.82273L3.13622 15.2102L10.2073 22.2813ZM23.5948 8.8938C25.124 7.36461 25.9738 5.3079 25.9738 3.14907H15.9738C15.9738 2.65973 16.1747 2.17173 16.5237 1.82273L23.5948 8.8938ZM25.9738 3.14907C25.9738 0.990233 25.124 -1.06647 23.5948 -2.59567L16.5237 4.4754C16.1747 4.12641 15.9738 3.6384 15.9738 3.14907H25.9738ZM15.0593 0.939867V0.940917H25.0593V0.939867H15.0593ZM4.30259 13.2225L-0.305863 14.8983L3.11157 24.2963L7.72002 22.6205L4.30259 13.2225ZM6.10182 21.306L7.77762 16.6976L-1.62031 13.2802L-3.29611 17.8886L6.10182 21.306ZM6.61419 18.5244L18.2356 6.903L11.1645 -0.168067L-0.456881 11.4533L6.61419 18.5244ZM11.1645 6.903L14.0972 9.83565L21.1682 2.76458L18.2356 -0.168067L11.1645 6.903ZM14.0972 2.76458L2.47577 14.386L9.54684 21.4571L21.1682 9.83565L14.0972 2.76458ZM15.7803 1.08038L14.8395 2.02118L21.9106 9.09225L22.8514 8.15145L15.7803 1.08038ZM21.9106 2.02118L18.9779 -0.911467L11.9069 6.1596L14.8395 9.09225L21.9106 2.02118ZM18.9779 6.1596L19.9187 5.2188L12.8477 -1.85227L11.9069 -0.911466L18.9779 6.1596ZM19.9187 5.2188C19.3711 5.76643 18.6195 6.07637 17.849 6.07637V-3.92363C15.9718 -3.92363 14.1786 -3.18319 12.8477 -1.85227L19.9187 5.2188ZM17.849 6.07637C17.0785 6.07637 16.3269 5.76642 15.7793 5.2188L22.8503 -1.85227C21.5194 -3.18319 19.7262 -3.92363 17.849 -3.92363V6.07637ZM15.7793 5.2188C15.2316 4.67118 14.9217 3.91955 14.9217 3.14907H24.9217C24.9217 1.27188 24.1813 -0.521345 22.8503 -1.85227L15.7793 5.2188ZM14.9217 3.14907C14.9217 2.37859 15.2316 1.62696 15.7793 1.07933L22.8503 8.1504C24.1813 6.81948 24.9217 5.02625 24.9217 3.14907H14.9217ZM15.7798 8.15093L15.7808 8.15198L22.8509 1.07986L22.8498 1.07881L15.7798 8.15093Z" fill="#7E7E7E" mask="url(#path-1-inside-1_126_1300)"/>
</svg>
